<?xml version="1.0" encoding="UTF-8"?>
<svg version="1.1" xmlns="http://www.w3.org/2000/svg" width="500" height="500">
<path d="M0 0 C9.25974552 9.27979911 10.44657183 18.39717351 10.53439331 31.01580811 C10.52571671 33.25002353 10.50651601 35.48422054 10.47729492 37.71826172 C10.43750416 41.12464362 10.45667118 44.52714412 10.48242188 47.93359375 C10.47486387 50.12501492 10.46391153 52.31642756 10.44921875 54.5078125 C10.45620285 55.51224396 10.46318695 56.51667542 10.47038269 57.55154419 C10.30525117 65.91356601 7.81564551 72.34698711 2.42578125 78.76953125 C-8.31643553 88.05577815 -18.58750845 92.5879906 -32.8203125 92.30859375 C-42.59377313 91.42920492 -50.50945856 87.67879478 -58.59375 82.29296875 C-61.16719114 80.77214045 -61.16719114 80.77214045 -63.97265625 81.16015625 C-66.4503323 81.86467679 -66.4503323 81.86467679 -68.1875 84.25 C-69.48714807 86.9105746 -69.48714807 86.9105746 -68.8125 89.5 C-65.20941544 95.2649353 -59.63451032 98.11795488 -53.5625 100.6875 C-52.85625488 100.98785156 -52.15000977 101.28820312 -51.42236328 101.59765625 C-36.66863495 107.66975751 -22.05926533 106.90143656 -7.25 101 C-2.62187627 98.78453225 1.86196392 96.45571297 5.93359375 93.31640625 C7.75 92 7.75 92 9.75 92 C9.75 128.3 9.75 164.6 9.75 202 C7.11 200.02 4.47 198.04 1.75 196 C-8.51116647 188.61196014 -21.5458104 184.36129469 -34.25 186 C-48.92321717 188.54075174 -61.79445093 193.9360236 -71.25 206 C-74.36182633 211.01945933 -77.31782016 216.15145044 -79.16015625 221.78125 C-80.25 224 -80.25 224 -82.28125 225.046875 C-83.50328125 225.39492188 -83.50328125 225.39492188 -84.75 225.75 C-93.73213647 228.98668883 -100.10598218 235.5478086 -104.41015625 243.95703125 C-105.93525005 247.6669106 -106.44769717 251.0564855 -106.5625 255.0625 C-106.59988281 255.91972656 -106.63726562 256.77695312 -106.67578125 257.66015625 C-106.45268667 260.13625397 -106.45268667 260.13625397 -104.45703125 261.8125 C-101.09966193 263.61894296 -98.83742794 262.99650776 -95.25 262 C-93.512523 259.31747639 -92.91135365 256.74460796 -92.375 253.625 C-91.14829959 247.87838041 -88.95176952 244.31178067 -84.25 240.6875 C-78.77581076 237.60826855 -73.32474782 237.16826309 -67.1640625 238.42578125 C-61.7115187 240.1283955 -57.93131377 242.90466853 -55.25 248 C-53.91052796 252.61991489 -53.00079861 257.25152808 -52.25 262 C-50.81465159 262.2226746 -49.37654475 262.42761906 -47.9375 262.625 C-47.13699219 262.74101562 -46.33648437 262.85703125 -45.51171875 262.9765625 C-42.96276785 263.21533407 -42.96276785 263.21533407 -40.25 261 C-38.72997995 252.34547144 -40.72295256 244.20417374 -45.60546875 237 C-50.93606075 230.36891505 -57.66538107 226.59271423 -65.25 223 C-60.41437388 212.63426954 -53.91935785 205.40874808 -43 201.125 C-31.90497963 197.79649389 -22.11952878 198.42085572 -11.5703125 203.21875 C-3.58788529 207.5860354 2.32349044 213.96520167 5.1328125 222.72265625 C5.43832031 223.84994141 5.43832031 223.84994141 5.75 225 C6.01554688 225.96808594 6.28109375 226.93617188 6.5546875 227.93359375 C9.86683791 241.07179038 9.91965334 254.37877158 9.953125 267.8515625 C9.95736607 269.02115068 9.95736607 269.02115068 9.96169281 270.21436691 C9.97654887 274.33139111 9.98586694 278.44838142 9.99023438 282.56542969 C9.99573656 286.7824462 10.01984036 290.99914278 10.04820633 295.21605873 C10.06693419 298.49513643 10.07204341 301.77413799 10.07357025 305.05326462 C10.0765683 306.60719957 10.08449859 308.16113412 10.09775543 309.71501541 C10.19824667 322.38465038 9.40417993 334.00715607 0.75 344 C-7.59327744 352.07616686 -15.69984117 354.51423562 -27.14990234 354.49682617 C-35.99611903 354.17754701 -43.66719336 350.91498568 -50.25 345 C-51.68257503 343.16861288 -53.05796355 341.29115891 -54.375 339.375 C-56.59266778 336.15636155 -57.97730357 334.18179762 -61.25 332 C-63.55542061 331.69146787 -65.87021628 331.45087908 -68.1875 331.25 C-78.0695392 330.14281901 -86.97812633 326.48158472 -93.78515625 318.9921875 C-99.19300893 311.63750786 -101.82981356 304.13206356 -101.25 295 C-100.54759871 291.96170606 -99.75772029 288.96469974 -98.90625 285.96484375 C-98.20258367 282.78577978 -97.85463702 280.23928081 -98.25 277 C-100.47836443 274.41116485 -101.89031923 274.03986153 -105.28125 273.6640625 C-106.99828125 273.64472656 -106.99828125 273.64472656 -108.75 273.625 C-118.73544144 273.08524641 -127.30006778 269.94741905 -134.5703125 262.93359375 C-139.84248665 256.86446305 -141.93533147 250.38376345 -143.57421875 242.6015625 C-144.15258577 239.79112174 -144.15258577 239.79112174 -146.25 237 C-146.76244921 230.33816024 -144.40728592 225.05254304 -140.25 220 C-133.74294743 213.06192472 -127.70621363 210.47872002 -118.4375 209.125 C-114.40720044 208.52551677 -114.40720044 208.52551677 -111.375 206 C-111.00375 205.01 -110.6325 204.02 -110.25 203 C-106.09436591 193.64189269 -101.5867365 187.14959143 -92.14453125 182.7265625 C-88.78407613 181.43781064 -85.84451838 180.87755669 -82.24609375 181.0078125 C-81.13524414 181.03294922 -81.13524414 181.03294922 -80.00195312 181.05859375 C-78.45483823 181.10298354 -76.90792657 181.15510947 -75.36132812 181.21484375 C-71.10305642 181.33659905 -71.10305642 181.33659905 -67.234375 179.78515625 C-65.96546417 177.48399654 -65.94883784 175.9267296 -66.0625 173.3125 C-66.10310547 172.10013672 -66.10310547 172.10013672 -66.14453125 170.86328125 C-66.17933594 170.24839844 -66.21414062 169.63351563 -66.25 169 C-79.80060224 165.89002571 -91.42728128 166.78873035 -103.87109375 173.5 C-112.58797348 178.99635766 -117.69513212 185.89026424 -122.25 195 C-124.20834202 195.64982691 -126.19351867 196.21951255 -128.1875 196.75 C-137.07712049 199.37492636 -143.91796116 203.27220873 -150.25 210 C-150.91 210 -151.57 210 -152.25 210 C-152.085 209.319375 -151.92 208.63875 -151.75 207.9375 C-151.13739743 204.33845991 -150.74650974 201.65030441 -151.25 198 C-152.80756591 196.06510826 -154.52433727 194.48410036 -156.3671875 192.8203125 C-162.4211842 186.96727835 -165.26524446 179.66970596 -165.75 171.375 C-165.57365856 162.49179972 -161.58833528 155.18969429 -155.6875 148.6875 C-151.31636631 144.62251575 -146.19692809 142.01228637 -140.91015625 139.34765625 C-138.39117787 138.2449184 -138.39117787 138.2449184 -137.25 137 C-136.67912021 131.51955402 -137.84509284 128.0213718 -140.27734375 123.11328125 C-143.40398869 116.32004867 -142.96029488 109.41431459 -140.625 102.4375 C-136.86586782 93.07882717 -131.19686669 86.77166223 -122.25 82 C-118.83646925 80.79929922 -115.44737084 79.79934271 -111.9375 78.921875 C-108.94425674 78.19902665 -108.94425674 78.19902665 -107.25 75 C-107.52865343 71.86514893 -108.16490637 69.22605026 -109.2734375 66.28125 C-112.22081251 56.37806995 -111.00701028 45.09180072 -106.25 36 C-99.65182473 24.41045899 -90.77679889 18.23391806 -78.25 14 C-74.82647048 13.19686231 -71.68091987 12.8807919 -68.16796875 12.90234375 C-67.23662109 12.90556641 -66.30527344 12.90878906 -65.34570312 12.91210938 C-64.38599609 12.92048828 -63.42628906 12.92886719 -62.4375 12.9375 C-61.45845703 12.94201172 -60.47941406 12.94652344 -59.47070312 12.95117188 C-57.06373889 12.96291316 -54.65690143 12.97933581 -52.25 13 C-51.80720703 12.09894531 -51.80720703 12.09894531 -51.35546875 11.1796875 C-46.80625606 2.20986176 -40.97156092 -2.86042979 -31.59375 -6.25 C-20.52723407 -9.7912851 -9.1201175 -7.12237747 0 0 Z " fill="#1DB753" transform="translate(233.25,66)"/>
<path d="M0 0 C4.56889376 3.76055102 7.87183921 8.0181143 11 13 C13.28870973 15.28870973 13.90186479 15.31006504 17 15.640625 C17.80018555 15.73819092 18.60037109 15.83575684 19.42480469 15.9362793 C20.27461914 16.03980713 21.12443359 16.14333496 22 16.25 C32.90219327 17.79451132 40.44801685 21.14396646 47.53125 29.84765625 C52.02670921 36.43541696 54.85932708 43.96529184 54 52 C53.29846709 55.0386164 52.50774997 58.03519571 51.65625 61.03515625 C50.95258367 64.21422022 50.60463702 66.76071919 51 70 C53.22836443 72.58883515 54.64031923 72.96013847 58.03125 73.3359375 C59.74828125 73.35527344 59.74828125 73.35527344 61.5 73.375 C70.8083549 73.86899178 79.61870906 76.64915283 86.4765625 83.22265625 C91.9295409 89.58446438 94.6563172 96.05837812 96.26171875 104.23828125 C96.86747683 107.08957473 96.86747683 107.08957473 98.66796875 109.5234375 C100 112 100 112 99.6640625 114.61328125 C97.1110569 121.24533716 94.11390909 126.06162554 89 131 C87.88625 132.1446875 87.88625 132.1446875 86.75 133.3125 C82.06499257 136.18739092 76.25125866 137.8020973 70.75390625 138.13671875 C68.31011263 138.35108661 67.04988253 138.61151119 65 140 C63.33230471 142.79302066 61.972432 145.58055736 60.63476562 148.5378418 C57.15486077 156.14377991 52.77511259 161.11625166 45.0625 164.5 C39.32633784 166.36364762 33.71187567 166.26229277 27.75024414 165.94140625 C23.67531125 165.70765512 23.67531125 165.70765512 20.0234375 167.27734375 C18.29292734 170.19014902 18.64802263 172.7148779 19 176 C20.54397218 178.57328697 21.67347421 178.91239552 24.5625 179.6875 C38.21792973 180.9289027 50.37776184 178.30484983 61.6015625 170.09765625 C66.45738734 166.04135544 69.50157457 162.36473855 72.3125 156.6875 C74.25742303 153.05513785 75.27551228 151.3561201 79.00390625 149.5234375 C81.24163802 148.88556726 83.49702955 148.30655317 85.765625 147.7890625 C90.90792216 146.53454073 95.88023906 144.1658427 99.6171875 140.34765625 C101 139 101 139 103 139 C103.33 138.01 103.66 137.02 104 136 C104.66 136.33 105.32 136.66 106 137 C105.835 137.495 105.67 137.99 105.5 138.5 C104.41693923 143.75751702 104.41693923 143.75751702 105 149 C106.80086571 151.17677457 108.78691584 152.96401596 110.890625 154.84765625 C116.43797588 160.50800872 119.13609569 168.27285704 119.3125 176.0625 C119.19363145 185.79891525 116.185313 192.71855318 109.56640625 199.83984375 C105.94326664 202.88945745 101.93546145 205.06590256 97.66064453 207.08642578 C94.53380882 208.6554135 93.17590263 209.52661497 91.9375 212.859375 C92.01037621 216.52140441 92.89297801 218.75161412 94.4375 222.0625 C97.87633659 230.49629478 98.5027644 238.47560547 95.5625 247.1875 C91.57943493 255.76855948 85.15641435 262.19094705 76.56640625 266.0625 C73.90469573 267.03481435 71.24581173 267.74215775 68.5 268.4375 C64.64946253 269.50043713 64.64946253 269.50043713 62.1875 272.6875 C61.98577601 276.25129051 62.80968026 278.43672196 64.18359375 281.68359375 C67.66823687 291.57064336 66.02702161 302.45212243 61.70703125 311.796875 C55.02581488 323.61886644 45.17300085 330.4303395 32.1484375 334.234375 C28.32572313 335.12476021 24.88507541 334.93056952 20.99731445 334.61572266 C13.02378724 333.94571449 13.02378724 333.94571449 6.046875 337.23046875 C3.85824664 340.06573731 1.94139682 342.99249424 0 346 C-6.72489917 352.63075058 -15.03968012 356.16595427 -24.4375 356.5 C-33.80433537 356.158386 -41.48889174 353.46589548 -48.28125 346.91015625 C-58.06793454 336.03359093 -57.28587778 323.24812222 -57.1953125 309.3984375 C-57.19157557 307.70879281 -57.18873181 306.01914593 -57.18673706 304.32949829 C-57.17915411 299.91381697 -57.1595524 295.49827027 -57.1373291 291.0826416 C-57.11675474 286.5642275 -57.10771072 282.04579134 -57.09765625 277.52734375 C-57.07630071 268.68483452 -57.04223041 259.84243408 -57 251 C-56.44014404 250.88406494 -55.88028809 250.76812988 -55.3034668 250.64868164 C-52.76442215 250.12180947 -50.22595912 249.59218569 -47.6875 249.0625 C-46.36588867 248.78889648 -46.36588867 248.78889648 -45.01757812 248.50976562 C-44.17001953 248.33251953 -43.32246094 248.15527344 -42.44921875 247.97265625 C-41.66893311 247.81031494 -40.88864746 247.64797363 -40.0847168 247.48071289 C-37.8247029 246.99433396 -37.8247029 246.99433396 -35 246 C-23.72514563 245.03539114 -14.7445376 247.06342041 -5.82421875 254.15625 C-1.5480247 258.47822771 1.79899305 264.00876991 3 270 C2.20335937 270.24234375 1.40671875 270.4846875 0.5859375 270.734375 C-9.6841498 273.98282111 -16.87751207 278.00969438 -22.4375 287.4375 C-23.25664493 291.16916023 -22.63717359 294.24067582 -22 298 C-19.2087846 298.55824308 -16.81815209 299.02171986 -14 299 C-11.63395638 297.37757009 -10.42801033 295.64863421 -8.86328125 293.27734375 C-6.05910129 289.11088078 -4.00691142 286.54058813 1 285 C5.76469934 284.7257727 9.63851005 285.31231967 13.4375 288.3125 C16.74026205 291.77637239 17.9746577 293.4649809 18.0546875 298.3125 C17.93488323 300.77109202 17.80988155 303.22943627 17.6796875 305.6875 C17.7170345 309.05629313 17.7170345 309.05629313 19.8046875 311.421875 C22.66186149 313.47578655 24.56056675 313.31267575 28 313 C32.3613994 305.2253315 32.39551237 299.38191501 30.08203125 290.94140625 C28.11604228 285.59703913 25.16218124 281.48131004 20.45703125 278.2578125 C17.29929977 275.3561133 16.57271884 272.3947607 15.5625 268.375 C13.62958003 261.5265647 11.19855026 255.81752851 7 250 C6.55011719 249.35675781 6.10023438 248.71351563 5.63671875 248.05078125 C-1.06954438 239.34208462 -11.48921148 235.14801419 -22 233 C-31.81262538 231.86465491 -40.80016078 233.77969376 -50.26171875 236.125 C-54 237 -54 237 -57 237 C-57 208.29 -57 179.58 -57 150 C-52.38 152.64 -47.76 155.28 -43 158 C-28.79517829 163.53988047 -16.35446213 164.42671087 -1.875 158.875 C10.93526167 153.07827209 20.90873935 144.13212229 26.30859375 131.0078125 C27.07357139 129.01537511 27.07357139 129.01537511 27.25390625 126.8828125 C28 125 28 125 30.40625 123.796875 C31.4271875 123.45140625 32.448125 123.1059375 33.5 122.75 C43.05980259 119.01019613 48.84803124 113.623043 53.125 104.296875 C55.04615022 99.25385568 55.71165044 94.37804401 55 89 C53.59555724 86.6757814 53.59555724 86.6757814 51 86 C47.37350049 85.91083846 47.37350049 85.91083846 44 87 C42.25202915 89.68333986 41.74634325 92.11731368 41.3125 95.25 C40.13020921 100.80401722 37.32016619 104.3913906 33 108 C28.23964413 110.78154127 23.484043 111.67347897 18 111 C12.96703361 109.46142478 8.23967666 107.36517078 4.984375 103.05078125 C3.1369098 99.20189541 2.50838817 95.0087535 1.7734375 90.828125 C1.24807192 87.69142158 1.24807192 87.69142158 -2 86 C-6.08400445 85.51327408 -6.08400445 85.51327408 -9.65234375 87.2109375 C-11.94900027 90.25983225 -11.58443127 93.18485886 -11.4765625 96.88671875 C-10.2789075 104.71074363 -5.95885361 112.12301711 -0.14453125 117.46484375 C4.22989253 120.59626187 9.10551155 122.80591897 14 125 C11.30328432 134.66323119 4.02240991 140.93988382 -4.4453125 145.84375 C-10.17837817 148.43853202 -15.62097825 149.36521935 -21.875 149.3125 C-22.57753906 149.30686035 -23.28007812 149.3012207 -24.00390625 149.29541016 C-34.59980052 149.04813998 -41.43073713 145.39068931 -48.94921875 138.11328125 C-55.8242321 130.77705107 -57.45159754 123.71325678 -57.41992188 113.91894531 C-57.42839142 112.94218842 -57.43686096 111.96543152 -57.44558716 110.95907593 C-57.46887436 107.74862432 -57.46998109 104.53865448 -57.46875 101.328125 C-57.47585774 99.08143932 -57.48355763 96.83475545 -57.49182129 94.58807373 C-57.50524802 89.88418532 -57.50684347 85.18046468 -57.50097656 80.4765625 C-57.49508948 74.47356066 -57.52564041 68.47137008 -57.56609344 62.46852493 C-57.59205323 57.8288343 -57.59484019 53.18933668 -57.59120178 48.54958344 C-57.592886 46.33777584 -57.60246062 44.12595864 -57.62034607 41.91422272 C-57.77960601 19.78177441 -57.77960601 19.78177441 -52 10 C-51.60083374 9.29482239 -51.20166748 8.58964478 -50.79040527 7.86309814 C-46.53173299 0.74857212 -38.92047179 -3.0699099 -31.23828125 -5.45703125 C-20.25454265 -8.12149838 -9.45116891 -6.32296512 0 0 Z " fill="#1DB753" transform="translate(314,65)"/>
<path d="M0 0 C0 36.3 0 72.6 0 110 C-8 104 -8 104 -11 101 C-9.68 101 -8.36 101 -7 101 C-7 101.66 -7 102.32 -7 103 C-6.34 103 -5.68 103 -5 103 C-5 103.66 -5 104.32 -5 105 C-4.01 105 -3.02 105 -2 105 C-2 71.34 -2 37.68 -2 3 C-2.66 3 -3.32 3 -4 3 C-4 3.66 -4 4.32 -4 5 C-5.65 5.33 -7.3 5.66 -9 6 C-3.2 0 -3.2 0 0 0 Z " fill="#2AAB5A" transform="translate(243,158)"/>
<path d="M0 0 C-4.75 3 -4.75 3 -7 3 C-7.04641246 12.91863805 -7.08191445 22.8372501 -7.10362434 32.75597477 C-7.11404584 37.36201384 -7.12817516 41.96797841 -7.15087891 46.57397461 C-7.1726656 51.02193875 -7.18458091 55.46983138 -7.18975449 59.91784477 C-7.19343979 61.61184247 -7.20063624 63.30583642 -7.21146011 64.99980354 C-7.22605257 67.3789416 -7.22797472 69.75778703 -7.22705078 72.13696289 C-7.23424133 72.83180283 -7.24143188 73.52664276 -7.24884033 74.24253845 C-7.22977064 78.80312788 -6.60097488 82.72427234 -5 87 C-4.01 87.66 -3.02 88.32 -2 89 C-0.94991347 90.97416268 0.04987876 92.97582866 1 95 C1.66 95.99 2.32 96.98 3 98 C-0.62252248 96.53184111 -2.35902636 94.65439502 -4.625 91.5 C-5.21539062 90.7059375 -5.80578125 89.911875 -6.4140625 89.09375 C-11.23931434 79.68094345 -10.26263695 68.6940205 -10.1953125 58.3984375 C-10.19157557 56.70879281 -10.18873181 55.01914593 -10.18673706 53.32949829 C-10.17915411 48.91381697 -10.1595524 44.49827027 -10.1373291 40.0826416 C-10.11675474 35.5642275 -10.10771072 31.04579134 -10.09765625 26.52734375 C-10.07630071 17.68483452 -10.04223041 8.84243408 -10 0 C-3.48214286 -1.20535714 -3.48214286 -1.20535714 0 0 Z " fill="#339F5B" transform="translate(267,316)"/>
<path d="M0 0 C0.33 0 0.66 0 1 0 C1.39054663 5.7280172 0.2198351 10.5264143 -1.34375 16.03515625 C-2.04741633 19.21422022 -2.39536298 21.76071919 -2 25 C0.25352687 27.63283337 1.7355928 27.96613504 5.171875 28.40625 C6.94304687 28.45265625 6.94304687 28.45265625 8.75 28.5 C14.50442137 28.78231504 18.7859333 29.60152932 24 32 C24 32.33 24 32.66 24 33 C22.02 33 20.04 33 18 33 C18 32.34 18 31.68 18 31 C17.02417969 31.0721875 16.04835938 31.144375 15.04296875 31.21875 C13.77066406 31.3115625 12.49835938 31.404375 11.1875 31.5 C9.29064453 31.63921875 9.29064453 31.63921875 7.35546875 31.78125 C3.77853177 32.01443798 1.4123753 32.13745843 -2 31 C-6.95688922 22.651555 -3.05196519 12.08306512 -0.875 3.40234375 C-0.58625 2.27957031 -0.2975 1.15679687 0 0 Z M-1 33 C1 34 1 34 1 34 Z " fill="#2AAB5B" transform="translate(367,110)"/>
<path d="M0 0 C0 3.70648825 -1.32433348 4.69592766 -3.6953125 7.375 C-5.56077988 9.69845638 -6.69737747 12.3327253 -8 15 C-10.59460321 16.2973016 -12.58564203 16.17698883 -15.48828125 16.24609375 C-17.13666992 16.29540039 -17.13666992 16.29540039 -18.81835938 16.34570312 C-21.13597603 16.40659076 -23.45368909 16.4639194 -25.77148438 16.51757812 C-27.42567383 16.56881836 -27.42567383 16.56881836 -29.11328125 16.62109375 C-30.12173096 16.6461499 -31.13018066 16.67120605 -32.16918945 16.69702148 C-35.13662357 17.01462267 -37.33733845 17.6637817 -40 19 C-40.33 19.66 -40.66 20.32 -41 21 C-43.64860427 21.59355614 -46.29197322 21.74209269 -49 22 C-46.65276062 19.31524908 -44.43528366 18.15282986 -41.125 16.875 C-40.28195313 16.54242188 -39.43890625 16.20984375 -38.5703125 15.8671875 C-34.32212095 14.43390707 -30.3945274 13.8748802 -25.91796875 13.90234375 C-24.98662109 13.90556641 -24.05527344 13.90878906 -23.09570312 13.91210938 C-22.13599609 13.92048828 -21.17628906 13.92886719 -20.1875 13.9375 C-19.20845703 13.94201172 -18.22941406 13.94652344 -17.22070312 13.95117188 C-14.81373889 13.96291316 -12.40690143 13.97933581 -10 14 C-9.70867187 13.401875 -9.41734375 12.80375 -9.1171875 12.1875 C-6.72643336 7.50630308 -3.84933555 3.57438301 0 0 Z " fill="#38A561" transform="translate(191,65)"/>
<path d="M0 0 C1.02665213 0.97261781 2.03769683 1.96367351 3 3 C2.67 3.66 2.34 4.32 2 5 C0.02 4.34 -1.96 3.68 -4 3 C-4 2.01 -4 1.02 -4 0 C-13.91415238 -5.3047153 -24.22012924 -8.24283303 -35.5078125 -5.359375 C-37.36550077 -4.63890274 -39.186088 -3.82450545 -41 -3 C-42.65672637 -2.62033354 -44.32070245 -2.26239024 -46 -2 C-34.21410996 -15.06299887 -12.17947025 -8.72559063 0 0 Z " fill="#2EA95D" transform="translate(229,274)"/>
<path d="M0 0 C0 3 0 3 -1.921875 5.19921875 C-4.47175899 8.63581052 -4.86996909 11.67570517 -5.25 15.8125 C-5.36601563 16.85180664 -5.36601563 16.85180664 -5.484375 17.91210938 C-5.67133957 19.60647581 -5.83777927 21.3030858 -6 23 C-7.71509766 22.98259766 -7.71509766 22.98259766 -9.46484375 22.96484375 C-10.95572754 22.95546712 -12.44661309 22.94636679 -13.9375 22.9375 C-14.69224609 22.92912109 -15.44699219 22.92074219 -16.22460938 22.91210938 C-18.14994313 22.90347559 -20.07535581 22.94775667 -22 23 C-22.33 23.33 -22.66 23.66 -23 24 C-24.99958364 24.04080783 -27.00045254 24.04254356 -29 24 C-25.91749308 20.91749308 -21.69350402 20.97580045 -17.49804688 20.40820312 C-14.09791049 19.83873856 -12.36303547 19.456521 -10.1796875 16.7109375 C-9.79039063 15.81632812 -9.40109375 14.92171875 -9 14 C-8.58878906 13.16339844 -8.17757812 12.32679688 -7.75390625 11.46484375 C-7.36074219 10.63082031 -6.96757813 9.79679687 -6.5625 8.9375 C-4.79481016 5.34319732 -3.15618094 2.57170299 0 0 Z " fill="#28AF5B" transform="translate(132,255)"/>
<path d="M0 0 C0.33 0 0.66 0 1 0 C1 27.39 1 54.78 1 83 C-0.32 81.68 -1.64 80.36 -3 79 C-2.01 79 -1.02 79 0 79 C0 52.93 0 26.86 0 0 Z " fill="#3E925C" transform="translate(242,185)"/>
<path d="M0 0 C0.66 0.33 1.32 0.66 2 1 C1.34 4.96 0.68 8.92 0 13 C-2 10 -2 10 -3 8 C-3.61875 8.66 -4.2375 9.32 -4.875 10 C-7 12 -7 12 -9 12 C-9 12.99 -9 13.98 -9 15 C-9.66 15 -10.32 15 -11 15 C-11 14.34 -11 13.68 -11 13 C-12.2375 13.350625 -13.475 13.70125 -14.75 14.0625 C-17.903292 14.95593273 -19.86774164 15.00881294 -23 14 C-22.20335937 13.68546875 -21.40671875 13.3709375 -20.5859375 13.046875 C-14.96361089 10.77605695 -9.9063973 8.55713805 -5 5 C-4.236875 4.649375 -3.47375 4.29875 -2.6875 3.9375 C-0.64102129 3.04927159 -0.64102129 3.04927159 0 0 Z " fill="#2DAA5E" transform="translate(418,201)"/>
<path d="M0 0 C2.97 0.495 2.97 0.495 6 1 C2.77067851 4.22932149 -1.67046908 4.54812301 -6.03125 5.609375 C-9.2453404 6.74473648 -9.2453404 6.74473648 -10.48828125 9.9140625 C-11.08033508 13.48446348 -10.2198023 15.39479025 -8.80859375 18.65625 C-6.62772766 24.97760098 -6.38264978 32.53059913 -8 39 C-8.33 39 -8.66 39 -9 39 C-9.03738281 37.84242188 -9.07476562 36.68484375 -9.11328125 35.4921875 C-9.17897425 33.95309439 -9.24542042 32.4140333 -9.3125 30.875 C-9.33505859 30.11445313 -9.35761719 29.35390625 -9.38085938 28.5703125 C-9.61511662 23.6296142 -10.59306435 20.40634781 -13 16 C-13.57426852 12.52968919 -13.36201005 9.18976403 -12.33203125 5.8046875 C-11 4 -11 4 -8.3984375 3.390625 C-7.40070313 3.34421875 -6.40296875 3.2978125 -5.375 3.25 C-4.37210937 3.19328125 -3.36921875 3.1365625 -2.3359375 3.078125 C-1.17964844 3.03945313 -1.17964844 3.03945313 0 3 C0 2.01 0 1.02 0 0 Z " fill="#2BA95D" transform="translate(387,328)"/>
<path d="M0 0 C-7.74091898 5.66408706 -14.71828185 6.25603082 -24.03515625 5.83398438 C-28.21208062 5.68543097 -28.21208062 5.68543097 -32.00390625 7.2109375 C-33.28664268 9.51483273 -33.30153834 11.06461821 -33.1875 13.6875 C-33.16042969 14.49574219 -33.13335937 15.30398437 -33.10546875 16.13671875 C-33.07066406 16.75160156 -33.03585937 17.36648437 -33 18 C-33.66 17.67 -34.32 17.34 -35 17 C-35.6328125 14.93359375 -35.6328125 14.93359375 -36.125 12.4375 C-36.29257812 11.61121094 -36.46015625 10.78492188 -36.6328125 9.93359375 C-36.75398438 9.29550781 -36.87515625 8.65742188 -37 8 C-33.86863572 4.66209893 -31.46428819 3.70548758 -27.0234375 3.42578125 C-25.14110438 3.36894113 -23.25809281 3.33174141 -21.375 3.3125 C-19.48689852 3.27040044 -17.59886749 3.22497379 -15.7109375 3.17578125 C-14.46256104 3.15898315 -14.46256104 3.15898315 -13.18896484 3.1418457 C-10.82088844 3.08152924 -10.82088844 3.08152924 -8 2 C-7.67 1.34 -7.34 0.68 -7 0 C-2.52459016 -1.26229508 -2.52459016 -1.26229508 0 0 Z " fill="#32A85E" transform="translate(366,225)"/>
<path d="M0 0 C2.9945636 3.63511196 3.47967955 6.31711593 4 11 C4.33 11.66 4.66 12.32 5 13 C0.22100656 19.70459519 0.22100656 19.70459519 -4.875 20.9375 C-5.90625 20.958125 -6.9375 20.97875 -8 21 C-8 20.34 -8 19.68 -8 19 C-9.32 19 -10.64 19 -12 19 C-12 18.01 -12 17.02 -12 16 C-11.07767578 16.14308594 -11.07767578 16.14308594 -10.13671875 16.2890625 C-9.32847656 16.39992188 -8.52023438 16.51078125 -7.6875 16.625 C-6.88699219 16.74101562 -6.08648437 16.85703125 -5.26171875 16.9765625 C-2.71276785 17.21533407 -2.71276785 17.21533407 0 15 C0.22137393 12.37302936 0.28162025 9.99106036 0.1875 7.375 C0.17396484 6.66859375 0.16042969 5.9621875 0.14648438 5.234375 C0.1111104 3.48925872 0.05730221 1.74453392 0 0 Z " fill="#2FA960" transform="translate(193,312)"/>
<path d="M0 0 C0.598125 0.226875 1.19625 0.45375 1.8125 0.6875 C1.32910156 1.08066406 0.84570312 1.47382813 0.34765625 1.87890625 C-2.19857748 4.87866761 -1.77480473 7.77374669 -1.6640625 11.57421875 C-0.28255346 20.59932292 4.94408383 27.91640475 11.8125 33.6875 C8.8125 33.6875 8.8125 33.6875 6.375 31.4375 C5.529375 30.53 4.68375 29.6225 3.8125 28.6875 C2.760625 27.82125 2.760625 27.82125 1.6875 26.9375 C-3.42682749 20.80030702 -5.07992286 10.45456963 -5.1875 2.6875 C-3.48658252 0.24399908 -3.00581183 -0.42940169 0 0 Z " fill="#2FA45D" transform="translate(304.1875,150.3125)"/>
<path d="M0 0 C4.11255809 -0.14622429 7.60586179 -0.05943439 10.96875 2.49609375 C13.53926822 5.50917761 14.93572046 7.74119235 15.140625 11.75390625 C14.90183418 14.22258194 14.54507217 16.58186167 14 19 C13.01 19 12.02 19 11 19 C10.01 21.475 10.01 21.475 9 24 C8 22 8 22 8.9375 18.9375 C10.24252262 14.6444256 10.71406078 10.45395411 10 6 C7.39813084 2.89777139 3.81672544 2.12766888 0 1 C0 0.67 0 0.34 0 0 Z " fill="#2CAC5E" transform="translate(359,148)"/>
<path d="M0 0 C2 0 2 0 3.4375 1.125 C5 3 5 3 6.3125 5.75 C8.08980376 9.1729554 10.13591505 11.53503604 12.79296875 14.2890625 C14 16 14 16 14 20 C15.32 20.33 16.64 20.66 18 21 C17.0479279 22.00596297 16.08812654 23.00461563 15.125 24 C14.59132813 24.556875 14.05765625 25.11375 13.5078125 25.6875 C12 27 12 27 10 27 C10.165 26.319375 10.33 25.63875 10.5 24.9375 C11.11260257 21.33845991 11.50349026 18.65030441 11 15 C9.42622182 13.01548301 7.70521524 11.39716647 5.82421875 9.703125 C3.31859562 7.36382803 1.71943796 4.95743329 0 2 C0 1.34 0 0.68 0 0 Z " fill="#38A360" transform="translate(71,249)"/>
<path d="M0 0 C3.23466616 3.6118867 4.26227598 7.50556345 5.5625 12.0625 C7.19586349 17.77517584 7.19586349 17.77517584 10 23 C9.3203125 25.69921875 9.3203125 25.69921875 8.125 28.6875 C7.73570312 29.68136719 7.34640625 30.67523438 6.9453125 31.69921875 C6.63335937 32.45847656 6.32140625 33.21773437 6 34 C5.09707867 31.00124667 5.0502566 29.68170819 5.5625 26.4375 C6.39622992 22.88442426 6.39622992 22.88442426 4 20 C3.44130612 17.70097469 2.94851864 15.38553407 2.5 13.0625 C1.71178203 8.98861256 0.8477502 5.686946 -1 2 C-0.67 1.34 -0.34 0.68 0 0 Z " fill="#2DAA5E" transform="translate(404,154)"/>
<path d="M0 0 C4.875 0.875 4.875 0.875 6 2 C6.12583966 3.934419 6.17578009 5.87402763 6.1875 7.8125 C6.20167969 8.87082031 6.21585938 9.92914063 6.23046875 11.01953125 C6 14 6 14 5 15.99609375 C1.85485587 22.29866773 3.9330518 32.1982052 5 39 C1.4546226 33.68193391 0.48233851 28.31547022 1 22 C1.7079467 18.96360434 2.49242668 15.96418193 3.34375 12.96484375 C4.03522099 9.84087661 4.25113801 7.18855579 4 4 C2.12498069 1.62280307 2.12498069 1.62280307 0 0 Z " fill="#33A860" transform="translate(131,339)"/>
<path d="M0 0 C2.38564077 0.57584432 4.66682784 1.22227595 7 2 C4.77290738 7.27157562 0.54107371 10.67596447 -4 14 C-7.5625 15 -7.5625 15 -10 15 C-8.7934375 14.1028125 -8.7934375 14.1028125 -7.5625 13.1875 C-4.77672016 11.19052724 -4.77672016 11.19052724 -4 8 C-3.34 8 -2.68 8 -2 8 C-2 7.34 -2 6.68 -2 6 C-0.68 5.67 0.64 5.34 2 5 C1.34 3.35 0.68 1.7 0 0 Z " fill="#29AF5A" transform="translate(402,186)"/>
<path d="M0 0 C0.94359375 0.94166016 0.94359375 0.94166016 1.90625 1.90234375 C6.01767844 4.69001682 9.64098518 5.00814073 14.5 5.5625 C24.62594928 6.76427805 24.62594928 6.76427805 29 10 C26.37912441 11.3104378 25.26767277 10.77164354 22.4375 10.125 C19.0378257 9.38040275 15.78264259 8.86349777 12.3125 8.625 C7.67626965 8.15561256 4.76926566 6.74842288 1 4 C0.0625 1.75 0.0625 1.75 0 0 Z " fill="#2CAC5E" transform="translate(322,76)"/>
<path d="M0 0 C0.33 0 0.66 0 1 0 C1.05073645 7.02918412 1.08574896 14.05832095 1.10986328 21.08764648 C1.11991686 23.47861496 1.13356164 25.86957115 1.15087891 28.26049805 C1.1751551 31.6984358 1.18648965 35.13621088 1.1953125 38.57421875 C1.20563507 39.64210129 1.21595764 40.70998383 1.22659302 41.81022644 C1.22674408 42.81088638 1.22689514 43.81154633 1.22705078 44.8425293 C1.231492 45.71967087 1.23593323 46.59681244 1.24050903 47.50053406 C0.97127801 50.29849037 0.15440198 52.44991984 -1 55 C-1.33 55 -1.66 55 -2 55 C-2.125 49.25 -2.125 49.25 -1 47 C-0.88194823 45.4892243 -0.82303551 43.97361169 -0.79467773 42.45849609 C-0.7647599 41.04725967 -0.7647599 41.04725967 -0.73423767 39.60751343 C-0.71752518 38.58976837 -0.70081268 37.57202332 -0.68359375 36.5234375 C-0.66281265 35.48305328 -0.64203156 34.44266907 -0.62062073 33.37075806 C-0.55510128 30.03890751 -0.49622908 26.7069765 -0.4375 23.375 C-0.39431706 21.11978326 -0.35070285 18.86457473 -0.30664062 16.609375 C-0.19941748 11.07300236 -0.09765554 5.53654922 0 0 Z " fill="#32AD63" transform="translate(242,82)"/>
<path d="M0 0 C1.32 0.33 2.64 0.66 4 1 C3.01 1 2.02 1 1 1 C0.76216797 2.26457031 0.76216797 2.26457031 0.51953125 3.5546875 C0.28621094 4.65039062 0.05289062 5.74609375 -0.1875 6.875 C-0.40792969 7.96554688 -0.62835938 9.05609375 -0.85546875 10.1796875 C-2 13 -2 13 -4.39453125 14.16796875 C-5.25433594 14.44253906 -6.11414063 14.71710938 -7 15 C-8.87573158 16.58926013 -8.87573158 16.58926013 -10.5 18.4375 C-13.12839758 21.17446182 -15.47964388 23.43539728 -19 25 C-19.99 24.67 -20.98 24.34 -22 24 C-21.35933594 23.5875 -20.71867187 23.175 -20.05859375 22.75 C-10.79674662 16.56623321 -4.9893411 9.93269748 0 0 Z " fill="#33A45C" transform="translate(390,216)"/>
<path d="M0 0 C0.99 0.33 1.98 0.66 3 1 C1.18811668 8.38690893 1.18811668 8.38690893 -2 11 C-3.49892477 11.75358787 -5.02314893 12.45786551 -6.5625 13.125 C-12.65721452 16.04220504 -17.20075473 20.31307749 -22 25 C-22 21.50907442 -21.64248717 21.1646114 -19.3125 18.75 C-15.02171871 14.59192329 -9.96817323 12.06128162 -4.6953125 9.3828125 C-2.14729774 8.24941885 -2.14729774 8.24941885 -1 7 C-0.63239269 4.67182036 -0.29758419 2.3381615 0 0 Z " fill="#32A65D" transform="translate(97,196)"/>
<path d="M0 0 C1.46373047 0.02707031 1.46373047 0.02707031 2.95703125 0.0546875 C3.69308594 0.07789063 4.42914063 0.10109375 5.1875 0.125 C5.1875 0.455 5.1875 0.785 5.1875 1.125 C4.33027344 1.17914063 3.47304688 1.23328125 2.58984375 1.2890625 C-1.28496977 1.80453938 -4.26834457 2.44401039 -7.8125 4.125 C-10.28479307 7.60483717 -11.81138127 10.92727057 -13.34765625 14.875 C-14.81595263 18.13266024 -15.78245827 19.35258849 -18.8125 21.125 C-18.8125 20.135 -18.8125 19.145 -18.8125 18.125 C-18.1009375 17.444375 -18.1009375 17.444375 -17.375 16.75 C-15.36813236 14.66285765 -15.32740734 12.92021125 -14.8125 10.125 C-14.1525 9.795 -13.4925 9.465 -12.8125 9.125 C-12.4103125 7.4234375 -12.4103125 7.4234375 -12 5.6875 C-10.8125 2.125 -10.8125 2.125 -8.6015625 0.91015625 C-5.59058353 0.06252772 -3.12081248 -0.0752003 0 0 Z " fill="#33A75F" transform="translate(386.8125,200.875)"/>
<path d="M0 0 C3.7149661 3.95464133 4.56020103 6.63445253 5 12 C5.18551071 13.81270469 5.37307879 15.62519978 5.5625 17.4375 C5.70980986 18.95819103 5.85616078 20.47897677 6 22 C2.69558235 18.37273694 1.84716125 14.52131164 0.75 9.875 C0.564375 9.14667969 0.37875 8.41835938 0.1875 7.66796875 C-1.13134705 2.2626941 -1.13134705 2.2626941 0 0 Z " fill="#2DAC5E" transform="translate(90,302)"/>
<path d="M0 0 C0 0.66 0 1.32 0 2 C-3.86456406 4.92770005 -7.28032161 5.36465868 -12 6 C-12.33 6.66 -12.66 7.32 -13 8 C-14 9 -14 9 -17.81640625 9.09765625 C-19.39846682 9.09098089 -20.98051159 9.07901875 -22.5625 9.0625 C-23.36880859 9.05798828 -24.17511719 9.05347656 -25.00585938 9.04882812 C-27.00393756 9.03700518 -29.00197783 9.01906914 -31 9 C-31 8.67 -31 8.34 -31 8 C-29.67548828 7.85304687 -29.67548828 7.85304687 -28.32421875 7.703125 C-19.61851802 6.618419 -11.6589001 4.92072263 -3.8203125 0.875 C-2 0 -2 0 0 0 Z " fill="#30A75F" transform="translate(234,164)"/>
<path d="M0 0 C9.77029896 -0.24631006 19.41892496 -0.22050666 29 2 C31 4 31 4 31 7 C30.443125 6.80664062 29.88625 6.61328125 29.3125 6.4140625 C19.38930061 3.02810595 10.49120448 1.55992383 0 1 C0 0.67 0 0.34 0 0 Z " fill="#2FAC5F" transform="translate(278,296)"/>
<path d="M0 0 C0 0.33 0 0.66 0 1 C-1.01578125 1.20753906 -2.0315625 1.41507813 -3.078125 1.62890625 C-12.54373475 3.70008499 -19.89078846 6.53242555 -28 12 C-28.33 10.68 -28.66 9.36 -29 8 C-27.3767313 7.3291288 -25.75132422 6.66342971 -24.125 6 C-23.22007812 5.62875 -22.31515625 5.2575 -21.3828125 4.875 C-19 4 -19 4 -17 4 C-17 3.34 -17 2.68 -17 2 C-11.19233704 0.4943096 -6.0018137 -0.21824777 0 0 Z " fill="#30A65F" transform="translate(199,251)"/>
<path d="M0 0 C5.04749868 3.84017191 9.5492115 8.01343851 12 14 C11.67 14.99 11.34 15.98 11 17 C8 13.25 8 13.25 8 11 C7.071875 10.566875 7.071875 10.566875 6.125 10.125 C4 9 4 9 2 7 C2.66 7 3.32 7 4 7 C4 6.34 4 5.68 4 5 C3.01 5.33 2.02 5.66 1 6 C0.34 5.34 -0.32 4.68 -1 4 C-0.625 1.875 -0.625 1.875 0 0 Z " fill="#2AAD5E" transform="translate(419,215)"/>
<path d="M0 0 C7.46343125 6.17663276 7.83386238 16.00016141 9 25 C8.34 25 7.68 25 7 25 C5.80712589 21.12315913 5 18.08378077 5 14 C4.34 13.67 3.68 13.34 3 13 C3 11.68 3 10.36 3 9 C2.55505645 7.40032201 2.05261616 5.81574577 1.5 4.25 C1.08234375 3.05117188 1.08234375 3.05117188 0.65625 1.828125 C0.4396875 1.22484375 0.223125 0.6215625 0 0 Z " fill="#2DAA5C" transform="translate(232,279)"/>
<path d="M0 0 C0.66 0.33 1.32 0.66 2 1 C0.84302241 3.31395519 -0.32931905 5.56997528 -1.625 7.8125 C-3.19984384 11.46327437 -3.14853563 14.06380586 -3 18 C-3.33 18.99 -3.66 19.98 -4 21 C-3.01 21.33 -2.02 21.66 -1 22 C-1.33 23.98 -1.66 25.96 -2 28 C-5.77434009 22.33848986 -5.75284394 16.62342487 -5 10 C-3.67682078 6.4329679 -2.001264 3.23061189 0 0 Z " fill="#30A95E" transform="translate(73,221)"/>
<path d="M0 0 C1.02802734 0.00966797 2.05605469 0.01933594 3.11523438 0.02929688 C4.72301758 0.06700195 4.72301758 0.06700195 6.36328125 0.10546875 C7.44673828 0.11900391 8.53019531 0.13253906 9.64648438 0.14648438 C12.3234153 0.18186232 14.99934963 0.23122686 17.67578125 0.29296875 C17.67578125 0.95296875 17.67578125 1.61296875 17.67578125 2.29296875 C18.33578125 2.29296875 18.99578125 2.29296875 19.67578125 2.29296875 C19.67578125 2.95296875 19.67578125 3.61296875 19.67578125 4.29296875 C19.04671875 4.14859375 18.41765625 4.00421875 17.76953125 3.85546875 C8.71979615 1.8928756 0.8354896 2.24185468 -8.32421875 3.29296875 C-5.79060787 0.07680384 -4.00404798 -0.06636544 0 0 Z " fill="#2EA85E" transform="translate(147.32421875,230.70703125)"/>
<path d="M0 0 C0.33 0.66 0.66 1.32 1 2 C0.22265625 3.7265625 0.22265625 3.7265625 -0.9375 5.625 C-1.618125 6.73875 -2.29875 7.8525 -3 9 C-0.94766315 11.2477975 0.00667261 12.0022242 3 13 C3.33 13.99 3.66 14.98 4 16 C-0.05281712 14.77472971 -3.44360764 13.30119506 -7 11 C-6.40361667 9.72549553 -5.79752584 8.45553123 -5.1875 7.1875 C-4.85105469 6.47980469 -4.51460937 5.77210938 -4.16796875 5.04296875 C-2.99354529 2.98870965 -1.74371984 1.58383722 0 0 Z " fill="#32A75F" transform="translate(175,278)"/>
<path d="M0 0 C0.66 0.99 1.32 1.98 2 3 C-4.19148 7.36217909 -7.47199469 8.14476933 -15 8 C-15 7.67 -15 7.34 -15 7 C-13.35 6.67 -11.7 6.34 -10 6 C-10 5.01 -10 4.02 -10 3 C-9.67 2.34 -9.34 1.68 -9 1 C-8.4225 1.33 -7.845 1.66 -7.25 2 C-4.80116138 3.27075898 -4.80116138 3.27075898 -1 3 C-0.67 2.01 -0.34 1.02 0 0 Z " fill="#25B35D" transform="translate(347,168)"/>
<path d="M0 0 C0 0.33 0 0.66 0 1 C-2.93666226 1.67055285 -5.87422359 2.33659053 -8.8125 3 C-9.64587891 3.19078125 -10.47925781 3.3815625 -11.33789062 3.578125 C-12.14033203 3.75859375 -12.94277344 3.9390625 -13.76953125 4.125 C-14.50792236 4.29257812 -15.24631348 4.46015625 -16.00708008 4.6328125 C-18 5 -18 5 -21 5 C-20.67 3.68 -20.34 2.36 -20 1 C-13.29980211 0.29867087 -6.73742646 -0.11044961 0 0 Z " fill="#31AA60" transform="translate(278,297)"/>
<path d="M0 0 C1.10272046 3.30816138 1.21537818 5.70111637 0 9 C-3.6864262 11.30401637 -7.86461952 11.40954695 -12.109375 11.75390625 C-14.00903861 11.80573168 -14.00903861 11.80573168 -15 13 C-16.99958364 13.04080783 -19.00045254 13.04254356 -21 13 C-17.91749308 9.91749308 -13.69350402 9.97580045 -9.49804688 9.40820312 C-5.98800262 8.82033087 -4.33403262 8.42283475 -2.08984375 5.58203125 C-0.94275988 2.95756762 -0.94275988 2.95756762 0 0 Z " fill="#32A65E" transform="translate(124,266)"/>
<path d="M0 0 C5.18834542 3.74043507 8.71814371 7.93775493 11 14 C10.67 14.99 10.34 15.98 10 17 C9.34 15.35 8.68 13.7 8 12 C6.35 12.33 4.7 12.66 3 13 C3 12.01 3 11.02 3 10 C3.66 10 4.32 10 5 10 C3.75023244 6.34683329 3.32901247 5.21934164 0 3 C0 2.01 0 1.02 0 0 Z " fill="#31AB5F" transform="translate(231,65)"/>
<path d="M0 0 C2.64 1.65 5.28 3.3 8 5 C5.50907189 6.24546405 4.58919267 5.7767578 2 5 C1.67 5.99 1.34 6.98 1 8 C1.66 8.33 2.32 8.66 3 9 C2.67 9.33 2.34 9.66 2 10 C1.76321284 12.69235776 1.57801975 15.36498156 1.4375 18.0625 C1.39431641 18.82111328 1.35113281 19.57972656 1.30664062 20.36132812 C1.20026367 22.24065438 1.09960066 24.12030244 1 26 C0.67 26 0.34 26 0 26 C0 17.42 0 8.84 0 0 Z " fill="#27B85D" transform="translate(257,215)"/>
<path d="M0 0 C1.65 0.33 3.3 0.66 5 1 C4.690625 1.680625 4.38125 2.36125 4.0625 3.0625 C2.44513364 7.53404229 1.07037917 12.43907804 3 17 C3.66 17.33 4.32 17.66 5 18 C3.35 17.67 1.7 17.34 0 17 C-0.77198588 12.62541335 -1.02066286 9.3094654 0 5 C0.0370279 3.3337447 0.04759962 1.66598681 0 0 Z " fill="#2CAC5B" transform="translate(289,346)"/>
<path d="M0 0 C1.70375479 5.11126437 -0.23770801 10.04099231 -2 15 C-4.25 17.8125 -4.25 17.8125 -7 19 C-10.8125 18.75 -10.8125 18.75 -14 18 C-14 17.01 -14 16.02 -14 15 C-12.906875 15.20625 -11.81375 15.4125 -10.6875 15.625 C-6.9161599 16.40346525 -6.9161599 16.40346525 -4 14 C-3.01425878 11.19566116 -3.01425878 11.19566116 -2.375 8 C-1.06086957 2.12173913 -1.06086957 2.12173913 0 0 Z " fill="#32A960" transform="translate(143,313)"/>
<path d="M0 0 C0 0.99 0 1.98 0 3 C-4.07142845 6.57541686 -8.58961609 8.59422121 -14 9 C-14 10.65 -14 12.3 -14 14 C-14.66 14 -15.32 14 -16 14 C-16.35105396 9.52406204 -16.35105396 9.52406204 -15 7 C-12.04375557 5.30695794 -9.0928661 4.17615635 -5.8828125 3.04296875 C-2.86005313 2.07898262 -2.86005313 2.07898262 0 0 Z " fill="#31A760" transform="translate(357,183)"/>
<path d="M0 0 C3.1188847 0.56706995 5.33953615 1.05799226 7.21875 3.73828125 C8.24173788 5.79588186 9.13965341 7.86981493 10 10 C10.4125 10.825 10.825 11.65 11.25 12.5 C12.32225557 16.07418523 12.12625207 19.27556401 12 23 C11.67 23 11.34 23 11 23 C10.77957031 21.83984375 10.77957031 21.83984375 10.5546875 20.65625 C8.98528099 13.36843126 6.84884547 8.60521133 2 3 C1.34 2.01 0.68 1.02 0 0 Z " fill="#35A560" transform="translate(335,342)"/>
<path d="M0 0 C0.66 0.33 1.32 0.66 2 1 C0.92027262 2.4194169 -0.16395863 3.8354083 -1.25 5.25 C-2.15492188 6.43335938 -2.15492188 6.43335938 -3.078125 7.640625 C-4.93182995 9.91631157 -6.88898954 11.96371558 -9 14 C-9.99 13.67 -10.98 13.34 -12 13 C-11.01 12.67 -10.02 12.34 -9 12 C-8.26676204 9.98491642 -8.26676204 9.98491642 -8 8 C-6.68 7.67 -5.36 7.34 -4 7 C-3.896875 6.21625 -3.79375 5.4325 -3.6875 4.625 C-3 2 -3 2 0 0 Z " fill="#30A65E" transform="translate(373,377)"/>
<path d="M0 0 C2.3125 -0.1875 2.3125 -0.1875 5 0 C6.02196992 0.97753644 7.01979625 1.9805881 8 3 C12.31922018 4.7200994 16.24954654 5.34180897 20.875 5.625 C22.02742188 5.69976562 23.17984375 5.77453125 24.3671875 5.8515625 C25.67042969 5.92503906 25.67042969 5.92503906 27 6 C27 6.33 27 6.66 27 7 C17.32876684 7.64379511 9.52067582 6.92438357 1 2 C0.67 1.34 0.34 0.68 0 0 Z " fill="#2EAC61" transform="translate(104,332)"/>
<path d="M0 0 C4.42741644 1.35282169 6.36309221 3.23298888 9 7 C10.20272819 9.40545638 10.10071472 10.94996953 10.0625 13.625 C10.05347656 14.44226563 10.04445313 15.25953125 10.03515625 16.1015625 C10.02355469 16.72804688 10.01195312 17.35453125 10 18 C9.67 18 9.34 18 9 18 C8.92523438 17.32453125 8.85046875 16.6490625 8.7734375 15.953125 C7.99991939 9.91911417 7.99991939 9.91911417 3.9375 5.625 C2.968125 5.08875 1.99875 4.5525 1 4 C0.125 1.75 0.125 1.75 0 0 Z " fill="#29AB5F" transform="translate(322,351)"/>
<path d="M0 0 C0 0.33 0 0.66 0 1 C-1.09699219 1.18175781 -2.19398438 1.36351562 -3.32421875 1.55078125 C-4.77873967 1.80414941 -6.2331617 2.05808573 -7.6875 2.3125 C-8.40873047 2.43044922 -9.12996094 2.54839844 -9.87304688 2.66992188 C-13.31958582 3.28368908 -15.73112178 3.83806629 -18.76953125 5.66796875 C-21 7 -21 7 -23.3125 6.6875 C-23.869375 6.460625 -24.42625 6.23375 -25 6 C-16.69637131 1.47074799 -9.45375023 -0.34377274 0 0 Z " fill="#34A261" transform="translate(208,265)"/>
<path d="M0 0 C7.32110622 1.16208035 12.09297127 3.559255 18 8 C17.01 8.33 16.02 8.66 15 9 C13.31536525 7.777814 11.63404868 6.55022975 9.984375 5.28125 C6.81924514 3.23762285 3.6761401 2.70943055 0 2 C0 1.34 0 0.68 0 0 Z " fill="#32A65D" transform="translate(298,59)"/>
<path d="M0 0 C5.28955909 0.32057934 8.5105891 3.2863339 12 7 C13.58821984 9.77938473 14.21270804 11.02508816 13.53125 14.1484375 C13.26828125 15.06496094 13.26828125 15.06496094 13 16 C12.81824219 15.43410156 12.63648438 14.86820312 12.44921875 14.28515625 C12.19785156 13.55167969 11.94648438 12.81820313 11.6875 12.0625 C11.32205078 10.96615234 11.32205078 10.96615234 10.94921875 9.84765625 C10.08759559 7.64067976 10.08759559 7.64067976 7 7 C6.67 6.01 6.34 5.02 6 4 C2.99992729 2.29144978 2.99992729 2.29144978 0 1 C0 0.67 0 0.34 0 0 Z " fill="#35A15F" transform="translate(165,305)"/>
<path d="M0 0 C4.03520597 1.58962659 8.01811282 3.28232318 12 5 C11.34 6.98 10.68 8.96 10 11 C9.67 10.34 9.34 9.68 9 9 C8.34 8.67 7.68 8.34 7 8 C7.33 7.34 7.66 6.68 8 6 C7.236875 5.7525 6.47375 5.505 5.6875 5.25 C2.7635955 3.89004442 1.69995644 2.68414174 0 0 Z " fill="#2FA95F" transform="translate(316,185)"/>
<path d="M0 0 C0.33 0 0.66 0 1 0 C0.67 6.6 0.34 13.2 0 20 C-2.85593426 14.28813149 -2.74134007 9.05706654 -1 2.9375 C-0.67 1.968125 -0.34 0.99875 0 0 Z " fill="#35A561" transform="translate(93,167)"/>
<path d="M0 0 C0 3.3 0 6.6 0 10 C-0.99 10.495 -0.99 10.495 -2 11 C-2 8.36 -2 5.72 -2 3 C-2.66 3 -3.32 3 -4 3 C-4 3.66 -4 4.32 -4 5 C-5.65 5.33 -7.3 5.66 -9 6 C-3.2 0 -3.2 0 0 0 Z " fill="#38A060" transform="translate(243,158)"/>
<path d="M0 0 C-3.66666667 3.66666667 -7.33333333 7.33333333 -11 11 C-10.67 8.69 -10.34 6.38 -10 4 C-8.68 3.67 -7.36 3.34 -6 3 C-6 2.01 -6 1.02 -6 0 C-3 -1 -3 -1 0 0 Z " fill="#2FA95F" transform="translate(170,264)"/>
<path d="M0 0 C0.66 0.66 1.32 1.32 2 2 C0.54234835 3.62561151 -0.91614386 5.25046934 -2.375 6.875 C-3.18710938 7.77992188 -3.99921875 8.68484375 -4.8359375 9.6171875 C-6.19076205 11.10896183 -7.57505435 12.57505435 -9 14 C-9 12.68 -9 11.36 -9 10 C-8.34 10 -7.68 10 -7 10 C-6.731875 9.236875 -6.46375 8.47375 -6.1875 7.6875 C-5.04865495 5.11011382 -4.18583329 3.73045136 -2 2 C-1.34 2 -0.68 2 0 2 C0 1.34 0 0.68 0 0 Z " fill="#30A65D" transform="translate(122,241)"/>
<path d="M0 0 C8.91 1.98 8.91 1.98 18 4 C18 4.33 18 4.66 18 5 C15.93933896 5.1357683 13.87607243 5.23233903 11.8125 5.3125 C10.66394531 5.37050781 9.51539063 5.42851562 8.33203125 5.48828125 C5 5 5 5 0 0 Z " fill="#30A65F" transform="translate(271,224)"/>
<path d="M0 0 C2.31 0 4.62 0 7 0 C7.33 1.32 7.66 2.64 8 4 C9.32 4.33 10.64 4.66 12 5 C12 5.66 12 6.32 12 7 C7.69235185 5.43358249 3.93828536 3.31663844 0 1 C0 0.67 0 0.34 0 0 Z " fill="#2FA95C" transform="translate(174,147)"/>
<path d="M0 0 C0.66 1.32 1.32 2.64 2 4 C0.68 4.33 -0.64 4.66 -2 5 C-2.103125 5.598125 -2.20625 6.19625 -2.3125 6.8125 C-3.08876455 9.28243264 -4.07088921 10.32251235 -6 12 C-6.99 11.67 -7.98 11.34 -9 11 C-8.443125 10.484375 -7.88625 9.96875 -7.3125 9.4375 C-4.5099607 6.48347209 -2.31735327 3.34728806 0 0 Z " fill="#30A55E" transform="translate(309,353)"/>
<path d="M0 0 C2.31 0 4.62 0 7 0 C6.29875 0.556875 5.5975 1.11375 4.875 1.6875 C1.88655739 4.09124732 -1.05940238 6.53810432 -4 9 C-4.33 8.34 -4.66 7.68 -5 7 C-4.67 6.34 -4.34 5.68 -4 5 C-3.01 5 -2.02 5 -1 5 C-0.67 3.35 -0.34 1.7 0 0 Z " fill="#31A95D" transform="translate(298,338)"/>
<path d="M0 0 C0.56203125 0.16371094 1.1240625 0.32742188 1.703125 0.49609375 C4.13059056 1.02864997 6.26889681 1.09898681 8.75 1.0625 C9.94882813 1.04896484 9.94882813 1.04896484 11.171875 1.03515625 C12.07679688 1.01775391 12.07679688 1.01775391 13 1 C12.01 2.485 12.01 2.485 11 4 C7.375 4.6875 7.375 4.6875 4 5 C4 4.34 4 3.68 4 3 C2.68 3 1.36 3 0 3 C0 2.01 0 1.02 0 0 Z " fill="#25AF5D" transform="translate(181,328)"/>
<path d="M0 0 C0.66 0.33 1.32 0.66 2 1 C1.13375 1.7425 1.13375 1.7425 0.25 2.5 C-2.23862262 5.26513625 -3.50880066 7.90662469 -4.97265625 11.29296875 C-6 13 -6 13 -9 14 C-7.64002446 7.95566426 -4.14348206 4.36505864 0 0 Z " fill="#35A961" transform="translate(103,153)"/>
<path d="M0 0 C0.61875 0.804375 1.2375 1.60875 1.875 2.4375 C3.74164041 5.03874519 3.74164041 5.03874519 6 6 C7.03432904 7.98246398 8.03238392 9.98413316 9 12 C9.99 13.485 9.99 13.485 11 15 C7.19030112 13.50814889 5.54171208 11.39723489 3.25 8.0625 C2.63640625 7.18722656 2.0228125 6.31195313 1.390625 5.41015625 C0 3 0 3 0 0 Z " fill="#38A462" transform="translate(259,399)"/>
<path d="M0 0 C0 0.33 0 0.66 0 1 C-1.98 1 -3.96 1 -6 1 C-6.33 1.99 -6.66 2.98 -7 4 C-9.64 4 -12.28 4 -15 4 C-10.77951468 -0.85355812 -6.02568966 -0.10042816 0 0 Z " fill="#31A75C" transform="translate(164,304)"/>
<path d="M0 0 C1.32 0.33 2.64 0.66 4 1 C3.01 1.7734375 3.01 1.7734375 2 2.5625 C-0.65637543 5.79995755 -0.31342132 7.92552281 0 12 C-0.99 11.67 -1.98 11.34 -3 11 C-3 8.69 -3 6.38 -3 4 C-2.34 4 -1.68 4 -1 4 C-0.67 2.68 -0.34 1.36 0 0 Z " fill="#2CAB5E" transform="translate(406,272)"/>
<path d="M0 0 C1.32 0.33 2.64 0.66 4 1 C2.92456217 1.98783194 1.83926783 2.96493943 0.75 3.9375 C-0.15492188 4.75541016 -0.15492188 4.75541016 -1.078125 5.58984375 C-3.08467305 7.06212799 -4.57002449 7.57529189 -7 8 C-6.3125 5.5625 -6.3125 5.5625 -5 3 C-2.375 2.1875 -2.375 2.1875 0 2 C0 1.34 0 0.68 0 0 Z " fill="#2FAA5E" transform="translate(311,409)"/>
<path d="M0 0 C0.33 0.99 0.66 1.98 1 3 C-0.21484375 5.26171875 -0.21484375 5.26171875 -1.9375 7.6875 C-2.78634766 8.89986328 -2.78634766 8.89986328 -3.65234375 10.13671875 C-4.09707031 10.75160156 -4.54179687 11.36648438 -5 12 C-5.66 10.68 -6.32 9.36 -7 8 C-6.34 8 -5.68 8 -5 8 C-3.94228261 6.36935236 -2.94726954 4.69719127 -2 3 C-1.34 2.01 -0.68 1.02 0 0 Z " fill="#2FA85E" transform="translate(408,310)"/>
<path d="M0 0 C0.99 0.33 1.98 0.66 3 1 C2.55037804 2.96035175 2.09001752 4.91824309 1.625 6.875 C1.36976563 7.96554688 1.11453125 9.05609375 0.8515625 10.1796875 C0 13 0 13 -2 15 C-1.85973717 12.68715544 -1.71264442 10.37472409 -1.5625 8.0625 C-1.48128906 6.77472656 -1.40007812 5.48695313 -1.31640625 4.16015625 C-1 1 -1 1 0 0 Z " fill="#30A75B" transform="translate(354,152)"/>
<path d="M0 0 C2.475 0.495 2.475 0.495 5 1 C5 1.66 5 2.32 5 3 C5.66 3 6.32 3 7 3 C7 3.66 7 4.32 7 5 C7.639375 5.12375 8.27875 5.2475 8.9375 5.375 C9.618125 5.58125 10.29875 5.7875 11 6 C11.33 6.66 11.66 7.32 12 8 C6.80421104 6.63919813 3.86388964 4.58789752 0 1 C0 0.67 0 0.34 0 0 Z " fill="#2FAA5F" transform="translate(142,386)"/>
<path d="M0 0 C3.68996811 2.29598016 6.73675646 4.22792744 9 8 C9 8.66 9 9.32 9 10 C8.34 10 7.68 10 7 10 C7 9.34 7 8.68 7 8 C6.01 7.67 5.02 7.34 4 7 C4 6.01 4 5.02 4 4 C2.68 4 1.36 4 0 4 C0 2.68 0 1.36 0 0 Z " fill="#33A65C" transform="translate(304,317)"/>
<path d="M0 0 C6.32243793 0.20394961 7.24777842 0.24777842 12 5 C7.38 4.01 2.76 3.02 -2 2 C-1.34 1.34 -0.68 0.68 0 0 Z " fill="#31A75F" transform="translate(212,250)"/>
<path d="M0 0 C1.32 0.33 2.64 0.66 4 1 C2.54550599 2.0055761 1.08627557 3.00430435 -0.375 4 C-1.59316406 4.8353125 -1.59316406 4.8353125 -2.8359375 5.6875 C-5 7 -5 7 -7 7 C-7 6.34 -7 5.68 -7 5 C-4.69 3.68 -2.38 2.36 0 1 C0 0.67 0 0.34 0 0 Z " fill="#2EAA5C" transform="translate(419,264)"/>
<path d="M0 0 C1.65 0 3.3 0 5 0 C2.44977144 2.97526665 -0.40293526 4.50122302 -4 6 C-4.99 5.67 -5.98 5.34 -7 5 C-6.34 5 -5.68 5 -5 5 C-5 4.34 -5 3.68 -5 3 C-4.360625 2.87625 -3.72125 2.7525 -3.0625 2.625 C-2.0415625 2.315625 -2.0415625 2.315625 -1 2 C-0.67 1.34 -0.34 0.68 0 0 Z " fill="#2EA961" transform="translate(357,391)"/>
<path d="M0 0 C1.32 0 2.64 0 4 0 C5.42258812 3.82320557 6.24042276 6.91281305 6 11 C5.34 10.01 4.68 9.02 4 8 C3.29875 6.989375 2.5975 5.97875 1.875 4.9375 C0 2 0 2 0 0 Z " fill="#35A65F" transform="translate(187,301)"/>
<path d="M0 0 C0.8125 1.6875 0.8125 1.6875 1 4 C-1.69270677 7.23124812 -4.22480438 9.23770311 -8 11 C-7.59007812 10.45730469 -7.18015625 9.91460937 -6.7578125 9.35546875 C-6.21898437 8.64003906 -5.68015625 7.92460937 -5.125 7.1875 C-4.59132813 6.47980469 -4.05765625 5.77210938 -3.5078125 5.04296875 C-2.29185219 3.39543703 -1.13583859 1.70375789 0 0 Z " fill="#2DA85E" transform="translate(366,172)"/>
<path d="M0 0 C4.62 0.66 9.24 1.32 14 2 C14 2.33 14 2.66 14 3 C9.38 3 4.76 3 0 3 C0 2.01 0 1.02 0 0 Z " fill="#2FA75D" transform="translate(185,170)"/>
<path d="M0 0 C0 3.35279018 -0.35469584 5.08332445 -2 8 C-5.125 9.3125 -5.125 9.3125 -8 10 C-7.04367001 8.70684939 -6.08486149 7.41553147 -5.125 6.125 C-4.59132813 5.40570313 -4.05765625 4.68640625 -3.5078125 3.9453125 C-2 2 -2 2 0 0 Z " fill="#30A65A" transform="translate(335,206)"/>
<path d="M0 0 C3.9492568 0.55105909 7.34920174 1.38935371 11 3 C11 3.66 11 4.32 11 5 C6.62886504 4.49172849 3.61004338 3.54826592 0 1 C0 0.67 0 0.34 0 0 Z " fill="#33A560" transform="translate(272,208)"/>
<path d="M0 0 C1.32 0 2.64 0 4 0 C4 0.66 4 1.32 4 2 C5.65 1.67 7.3 1.34 9 1 C5.90097677 4.09902323 3.60852615 3.9898579 -0.75 4.0625 C-1.8225 4.041875 -2.895 4.02125 -4 4 C-4 3.67 -4 3.34 -4 3 C-2.35 2.67 -0.7 2.34 1 2 C0.67 1.34 0.34 0.68 0 0 Z " fill="#2EA65A" transform="translate(336,172)"/>
<path d="M0 0 C0 3.29223784 -0.50518132 5.08510357 -2 8 C-4.125 9.3125 -4.125 9.3125 -6 10 C-4.79157144 5.56909529 -3.48331435 3.01887244 0 0 Z " fill="#32A761" transform="translate(95,284)"/>
<path d="M0 0 C0.66 0 1.32 0 2 0 C1.34 1.98 0.68 3.96 0 6 C-1.65 6 -3.3 6 -5 6 C-4.67 4.68 -4.34 3.36 -4 2 C-2.02 2.495 -2.02 2.495 0 3 C0 2.01 0 1.02 0 0 Z " fill="#2FA95E" transform="translate(111,255)"/>
<path d="M0 0 C0.639375 0.639375 1.27875 1.27875 1.9375 1.9375 C5.91930882 4.61912635 9.294792 4.79498004 14 5 C14 5.33 14 5.66 14 6 C4.87743733 6.62674095 4.87743733 6.62674095 1.375 4.125 C0 2 0 2 0 0 Z " fill="#349C5C" transform="translate(322,76)"/>
<path d="M0 0 C0.66 0.33 1.32 0.66 2 1 C1 4 1 4 -1.375 5.25 C-4 6 -4 6 -7 5 C-4.69 3.35 -2.38 1.7 0 0 Z " fill="#2FA65B" transform="translate(325,216)"/>
<path d="M0 0 C3.91402949 1.26941497 5.79072873 2.51167694 8 6 C5.69 5.34 3.38 4.68 1 4 C0.67 2.68 0.34 1.36 0 0 Z " fill="#36A360" transform="translate(322,351)"/>
<path d="M0 0 C-1.28965176 1.37562854 -2.62689293 2.70766393 -4 4 C-4.66 4 -5.32 4 -6 4 C-6.33 2.68 -6.66 1.36 -7 0 C-2.25 -1.125 -2.25 -1.125 0 0 Z " fill="#2FA85A" transform="translate(402,323)"/>
<path d="M0 0 C2.64 1.65 5.28 3.3 8 5 C5.13822943 6.43088528 3.06624227 5.59991697 0 5 C0 3.35 0 1.7 0 0 Z " fill="#33A560" transform="translate(257,215)"/>
<path d="M0 0 C3.08793255 2.0586217 3.47838607 2.8553312 5 6 C5.66 6.33 6.32 6.66 7 7 C7 7.66 7 8.32 7 9 C3.64564078 7.61198929 1.88709697 6.11371 0 3 C0 2.01 0 1.02 0 0 Z " fill="#37A562" transform="translate(318,163)"/>
<path d="M0 0 C-0.33 0.66 -0.66 1.32 -1 2 C-3.64860427 2.59355614 -6.29197322 2.74209269 -9 3 C-5.83583464 -0.30799106 -4.50236011 -1.35070803 0 0 Z " fill="#2EAD5D" transform="translate(151,84)"/>
<path d="M0 0 C0.66 0.33 1.32 0.66 2 1 C1.67 1.66 1.34 2.32 1 3 C-0.32 3 -1.64 3 -3 3 C-3.33 3.99 -3.66 4.98 -4 6 C-4.99 5.67 -5.98 5.34 -7 5 C-2.25 1.125 -2.25 1.125 0 0 Z " fill="#34A860" transform="translate(276,62)"/>
<path d="M0 0 C2 0 2 0 3.5625 1.25 C5.14533111 3.17692483 5.5806825 4.56795851 6 7 C3.00675737 5.9024777 2.15389099 5.32317108 0.75 2.375 C0.5025 1.59125 0.255 0.8075 0 0 Z " fill="#30A95D" transform="translate(71,249)"/>
<path d="M0 0 C-5.17578125 3.22265625 -5.17578125 3.22265625 -7 4 C-7.99 3.67 -8.98 3.34 -10 3 C-7.28464405 0.28464405 -3.67870689 -1.83935344 0 0 Z " fill="#36A462" transform="translate(314,208)"/>
</svg>
